# xmcd
#
# Track frame offsets:
#	150
#	17975
#	35569
#	57528
#	76928
#	94648
#	113766
#	129392
#	142522
#	161094
#	182225
#	198067
#	212676
#	231473
#	251392
#
# Disc length: 3658 seconds
#
# Revision: 0
# Processed by: cddbd v1.5.2PL0 Copyright (c) Steve Scherf et al.
# Submitted via: audiograbber 1.83.01
#
DISCID=c50e480f
DTITLE=Carrie Underwood - Cb90376
DYEAR=2010
DGENRE=country
TTITLE0=Cowboy Casanova
TTITLE1=Play On
TTITLE2=Unapologize
TTITLE3=Someday When I Stop Loving You
TTITLE4=Quitter
TTITLE5=Mama's Song
TTITLE6=Change
TTITLE7=Songs Like This
TTITLE8=This Time
TTITLE9=temporary home
TTITLE10=Look At Me
TTITLE11=Undo It
TTITLE12=What Can I Say
TTITLE13=Do You Hear What I Hear
TTITLE14=How Great Thou Art
EXTD=
EXTT0=
EXTT1=
EXTT2=
EXTT3=
EXTT4=
EXTT5=
EXTT6=
EXTT7=
EXTT8=
EXTT9=
EXTT10=
EXTT11=
EXTT12=
EXTT13=
EXTT14=
PLAYORDER=
